<?xml version="1.0" standalone="no"?>
<!DOCTYPE svg PUBLIC "-//W3C//DTD SVG 20010904//EN"
 "http://www.w3.org/TR/2001/REC-SVG-20010904/DTD/svg10.dtd">
<svg version="1.0" xmlns="http://www.w3.org/2000/svg"
 width="2000.000000pt" height="2000.000000pt" viewBox="0 0 2000.000000 2000.000000"
 preserveAspectRatio="xMidYMid meet">
<metadata>
Created by potrace 1.14, written by Peter Selinger 2001-2017
</metadata>
<g transform="translate(0.000000,2000.000000) scale(0.100000,-0.100000)"
fill="#000000" stroke="none">
<path d="M9575 16920 c-164 -40 -257 -178 -257 -380 0 -193 71 -339 192 -393
62 -28 205 -28 271 -1 56 23 114 74 152 132 90 138 66 426 -47 559 -43 51
-124 85 -209 88 -40 1 -85 -1 -102 -5z m162 -76 c115 -39 183 -187 170 -373
-12 -186 -125 -296 -283 -277 -67 8 -98 23 -140 68 -61 64 -88 153 -88 293 0
76 4 99 26 145 63 137 179 190 315 144z"/>
<path d="M10266 16913 c-3 -10 -8 -52 -11 -93 -7 -82 -13 -150 -20 -220 -3
-25 -7 -79 -10 -120 -3 -41 -8 -86 -10 -100 -2 -14 -6 -56 -10 -95 -3 -38 -8
-87 -11 -107 -5 -37 -4 -38 26 -38 16 0 33 0 37 0 8 -1 10 9 17 118 4 48 9
103 11 122 4 32 13 141 20 230 8 108 17 205 19 207 2 2 22 -34 46 -80 23 -45
55 -104 70 -132 15 -27 57 -106 93 -175 36 -69 90 -172 121 -230 53 -102 56
-105 92 -108 20 -2 40 0 44 5 5 4 11 49 14 99 4 50 8 106 11 125 3 32 6 62 21
222 3 34 7 73 9 87 2 14 7 63 10 110 4 47 8 97 10 113 3 24 0 27 -26 27 -16 0
-32 0 -36 0 -8 1 -9 -2 -18 -115 -4 -49 -8 -103 -10 -120 -2 -16 -6 -64 -10
-105 -3 -41 -8 -91 -10 -110 -2 -19 -7 -78 -11 -130 -3 -52 -7 -96 -9 -98 -2
-2 -86 154 -223 418 -172 330 -156 305 -200 308 -32 2 -41 -1 -46 -15z"/>
<path d="M8901 16831 c-11 -7 5 -72 81 -332 52 -178 93 -326 92 -328 -2 -3
-205 169 -224 190 -3 3 -92 81 -199 173 l-194 169 -36 -9 c-33 -9 -36 -12 -33
-43 1 -18 11 -61 22 -94 20 -62 112 -386 155 -547 l23 -85 33 3 c18 1 35 4 37
7 3 3 -133 477 -174 604 -13 42 -11 67 4 45 4 -5 54 -50 112 -99 58 -50 110
-94 116 -100 6 -5 71 -62 144 -125 73 -63 154 -134 179 -158 41 -37 50 -42 81
-36 19 3 39 9 43 13 5 5 -34 159 -86 342 -53 184 -100 353 -106 377 -9 33 -16
42 -34 42 -12 0 -28 -4 -36 -9z"/>
<path d="M7893 16497 c-94 -45 -175 -85 -178 -89 -4 -3 14 -50 39 -103 25 -54
46 -99 46 -100 0 -2 32 -69 70 -149 39 -81 70 -148 70 -150 0 -10 101 -216
105 -216 7 0 65 26 234 107 73 34 138 63 143 63 11 0 2 50 -11 63 -4 4 -59
-17 -122 -46 -63 -30 -135 -63 -160 -75 l-46 -20 -38 82 c-20 44 -48 104 -61
131 l-25 50 58 27 c32 15 93 44 136 64 42 20 77 41 77 48 -1 6 -6 21 -13 32
-12 21 -14 20 -146 -43 -147 -69 -138 -69 -170 2 -10 22 -35 75 -55 118 -20
43 -36 81 -36 83 0 5 146 75 248 119 23 11 42 24 42 29 0 26 -13 56 -24 55 -6
0 -88 -38 -183 -82z"/>
<path d="M11784 16561 c-54 -14 -135 -64 -174 -108 -76 -87 -150 -270 -150
-373 0 -106 59 -196 162 -248 69 -35 196 -65 254 -60 40 3 28 -18 114 202 16
44 29 80 28 81 -7 5 -47 25 -51 25 -3 0 -15 -26 -28 -57 -12 -32 -32 -80 -44
-108 -12 -27 -25 -58 -28 -67 -8 -22 -22 -22 -101 -2 -119 31 -170 64 -206
134 -70 137 59 438 218 506 88 38 222 6 303 -72 35 -34 36 -34 53 -15 21 23
12 46 -35 85 -76 65 -224 101 -315 77z"/>
<path d="M12276 15974 c-108 -185 -196 -340 -196 -345 0 -8 60 -43 64 -37 1 2
38 65 81 141 44 75 82 136 86 135 3 -2 39 -19 78 -38 l72 -35 -6 -91 c-2 -49
-8 -123 -11 -162 -11 -126 -11 -128 27 -147 17 -9 32 -15 34 -13 1 2 5 44 9
93 14 177 17 223 21 241 2 11 4 29 4 41 1 14 7 20 19 19 63 -10 164 70 205
162 47 108 15 185 -113 270 -78 52 -163 102 -172 102 -4 0 -94 -151 -202 -336z
m361 166 c61 -45 77 -93 55 -160 -27 -84 -101 -141 -171 -133 -36 4 -155 59
-171 78 -6 8 87 180 153 282 9 15 57 -9 134 -67z"/>
<path d="M7383 16236 c-28 -19 -31 -25 -28 -66 2 -25 7 -103 10 -175 4 -71 9
-133 12 -137 10 -17 -22 -5 -172 67 -87 41 -164 75 -172 75 -7 0 -27 -10 -43
-21 l-29 -22 157 -72 c86 -39 176 -80 200 -90 39 -18 42 -22 43 -59 1 -23 3
-72 4 -111 10 -197 14 -283 14 -313 l1 -32 34 22 c37 24 35 5 21 218 -3 58 -8
131 -10 163 -2 31 0 57 4 57 5 0 53 -22 108 -49 54 -27 121 -59 148 -71 28
-12 66 -31 86 -41 36 -18 36 -18 73 7 l38 26 -217 98 c-120 55 -220 101 -223
104 -6 6 -7 34 -16 270 -4 94 -8 171 -9 172 -1 1 -16 -8 -34 -20z"/>
<path d="M6687 15753 c-23 -25 -25 -33 -18 -58 37 -119 137 -465 136 -465 -4
0 -371 124 -436 147 l-55 20 -33 -29 c-20 -18 -27 -30 -19 -33 7 -2 101 -31
208 -65 381 -119 342 -101 448 -212 l94 -97 25 25 26 26 -50 51 c-117 121
-134 143 -148 192 -8 28 -41 149 -75 270 -77 281 -69 263 -103 228z"/>
<path d="M13072 15744 c-65 -20 -165 -97 -225 -172 -144 -181 -150 -336 -17
-471 82 -83 188 -120 290 -101 78 15 134 45 204 110 155 145 217 319 159 447
-21 45 -82 116 -129 150 -72 50 -190 66 -282 37z m217 -79 c43 -22 94 -73 117
-116 9 -19 19 -59 20 -90 2 -47 -3 -69 -30 -125 -60 -125 -190 -242 -286 -259
-67 -12 -107 -7 -160 20 -90 46 -147 144 -136 237 14 125 171 309 297 347 47
14 138 7 178 -14z"/>
<path d="M13828 15207 c-7 -6 -38 -32 -68 -57 -30 -25 -57 -47 -60 -50 -3 -3
-58 -49 -122 -103 -143 -120 -192 -174 -217 -241 -35 -92 -10 -185 74 -275
101 -108 229 -122 364 -39 29 18 356 284 408 332 10 9 8 17 -10 39 l-22 28
-199 -165 c-209 -174 -260 -206 -336 -214 -86 -8 -157 34 -201 120 -52 101 -9
191 159 331 48 39 89 74 92 77 3 3 46 38 95 79 50 41 96 79 103 86 10 9 9 17
-8 38 -24 30 -33 33 -52 14z"/>
<path d="M6033 15103 c-16 -21 -87 -114 -157 -206 -123 -163 -127 -169 -110
-188 9 -10 22 -19 28 -19 6 0 40 38 76 84 35 47 69 82 74 79 6 -4 130 -97 276
-207 145 -111 271 -206 280 -213 14 -10 20 -7 38 16 l21 29 -142 108 c-109 83
-414 314 -435 330 -2 1 26 41 62 89 61 82 64 88 48 103 -9 9 -20 21 -23 25 -3
5 -20 -9 -36 -30z"/>
<path d="M14365 14476 c-11 -7 -36 -23 -55 -33 -71 -41 -544 -319 -579 -341
-11 -7 -10 -14 3 -40 9 -18 19 -32 22 -32 4 0 43 22 88 48 127 76 177 104 180
100 1 -1 18 -28 37 -58 48 -78 86 -118 132 -141 82 -42 186 -21 286 59 74 60
89 132 47 234 -32 78 -115 218 -130 218 -6 0 -20 -6 -31 -14z m76 -173 c35
-69 43 -126 23 -164 -21 -41 -115 -99 -171 -105 -67 -7 -107 17 -166 101 -26
38 -46 73 -44 78 1 4 70 48 152 96 170 101 154 101 206 -6z"/>
<path d="M5604 14415 c-54 -22 -101 -78 -165 -194 -34 -61 -60 -113 -58 -115
2 -1 103 -56 224 -121 121 -65 234 -126 250 -135 17 -9 74 -40 127 -69 l97
-51 16 30 c9 17 13 35 10 40 -3 5 -62 38 -130 75 -69 36 -125 68 -125 71 0 2
17 39 37 82 82 171 45 285 -119 368 -60 30 -121 38 -164 19z m136 -92 c122
-56 151 -141 89 -266 -17 -34 -34 -66 -39 -71 -5 -5 -63 22 -132 60 -67 37
-136 74 -153 82 -16 8 -31 16 -33 17 -5 4 49 97 77 134 54 72 104 83 191 44z"/>
<path d="M14585 13780 c-46 -10 -72 -27 -102 -67 -30 -39 -31 -53 -23 -300 2
-63 -2 -90 -16 -120 -38 -76 -133 -99 -199 -49 -77 59 -125 169 -125 288 l0
69 -32 -3 -33 -3 0 -80 c1 -96 28 -185 80 -263 67 -99 158 -132 264 -97 97 32
140 120 126 264 -17 189 -13 221 37 264 53 45 123 32 175 -33 25 -30 62 -117
79 -184 15 -61 19 -67 38 -62 12 3 24 6 29 6 35 1 -50 247 -106 308 -46 50
-128 76 -192 62z"/>
<path d="M11105 13719 c-148 -111 -398 -248 -624 -343 -123 -51 -145 -59 -325
-122 -71 -25 -137 -49 -146 -54 -14 -8 -17 -23 -15 -97 15 -523 197 -975 532
-1318 75 -78 182 -174 228 -205 13 -8 62 -41 109 -73 47 -32 141 -87 209 -122
l122 -63 85 42 c586 292 956 759 1074 1360 31 153 36 202 41 352 l5 121 -168
58 c-405 140 -746 311 -998 502 -17 12 -35 23 -40 22 -5 0 -45 -27 -89 -60z
m182 -393 c188 -114 470 -247 712 -337 l63 -24 -6 -65 c-9 -84 -57 -274 -95
-372 -132 -339 -391 -633 -716 -813 l-51 -28 -91 56 c-441 274 -708 684 -768
1182 l-5 40 163 63 c190 75 461 205 602 291 55 33 100 60 101 61 1 0 42 -25
91 -54z"/>
<path d="M11115 13078 c-93 -54 -305 -157 -435 -211 -122 -51 -117 -36 -65
-194 88 -266 250 -489 479 -659 l98 -74 39 22 c22 12 47 29 57 37 9 9 33 28
52 43 140 107 281 281 370 458 35 69 95 235 105 291 l6 34 -108 44 c-147 60
-458 215 -487 242 -17 16 -39 9 -111 -33z"/>
<path d="M5350 13726 c-69 -15 -106 -35 -146 -78 -44 -48 -73 -102 -89 -169
-39 -170 55 -324 245 -402 198 -82 351 -69 446 35 58 65 95 160 96 245 1 179
-172 336 -408 368 -27 4 -58 8 -69 9 -11 2 -45 -2 -75 -8z m199 -92 c217 -63
324 -212 267 -371 -47 -132 -163 -185 -321 -149 -199 47 -318 158 -318 297 0
64 29 134 75 183 58 60 174 76 297 40z"/>
<path d="M9263 13560 c-204 -94 -380 -319 -517 -660 -24 -58 -25 -66 -11 -76
38 -28 301 -104 407 -118 26 -4 66 -10 90 -14 24 -4 58 -7 77 -7 l34 0 -1 435
c0 502 0 470 -9 470 -5 -1 -36 -14 -70 -30z"/>
<path d="M9560 13136 l0 -455 58 5 c92 6 202 26 202 36 0 9 -17 130 -26 183
-9 52 -13 368 -6 415 6 40 11 46 40 55 17 5 32 13 32 18 0 11 -65 71 -115 106
-43 31 -127 74 -162 85 l-23 7 0 -455z"/>
<path d="M8730 13456 c-103 -45 -171 -80 -265 -138 -75 -47 -212 -150 -227
-172 -7 -11 72 -77 191 -158 l86 -59 14 33 c95 215 208 417 280 497 11 13 21
26 21 28 0 8 -31 -1 -100 -31z"/>
<path d="M8052 12962 c-10 -10 -45 -54 -78 -98 -167 -220 -283 -475 -339 -745
-8 -38 -17 -108 -30 -216 l-5 -43 365 0 365 0 1 73 c0 39 2 79 3 87 2 8 7 58
10 110 4 52 9 97 11 100 1 3 6 32 9 65 7 64 59 327 76 385 9 29 8 37 -6 45
-85 51 -204 133 -272 188 -45 37 -85 67 -87 67 -3 0 -13 -8 -23 -18z"/>
<path d="M8632 12532 c-23 -98 -49 -244 -58 -318 -3 -27 -7 -60 -9 -74 -3 -14
-7 -70 -10 -125 -4 -55 -8 -112 -10 -127 l-3 -28 399 0 c219 0 399 3 400 8 1
11 1 565 0 583 -1 11 -12 16 -38 17 -174 8 -429 63 -602 131 l-49 20 -20 -87z"/>
<path d="M9795 12489 c-42 -8 -148 -21 -200 -23 l-30 -1 -3 -303 -2 -302 310
0 c286 0 334 4 300 25 -16 10 -134 213 -178 307 -22 47 -57 135 -79 196 -42
122 -37 118 -118 101z"/>
<path d="M5254 12040 c-229 -51 -320 -335 -160 -504 120 -128 311 -133 437
-12 92 88 117 242 58 358 -58 115 -209 186 -335 158z"/>
<path d="M14577 12025 c-154 -62 -230 -207 -189 -360 38 -142 177 -240 322
-228 104 8 214 89 255 186 101 243 -147 500 -388 402z"/>
<path d="M7668 11642 l-67 -3 5 -52 c32 -359 175 -713 402 -997 24 -30 49 -58
56 -61 6 -4 47 22 91 58 44 35 121 91 170 123 139 90 127 73 105 160 -23 87
-24 92 -49 230 -11 58 -22 137 -26 175 -4 39 -8 81 -10 94 -3 14 -7 79 -11
145 -3 67 -8 122 -9 124 -4 4 -572 8 -657 4z"/>
<path d="M8590 11640 c-44 -5 -45 -6 -44 -40 7 -185 37 -412 75 -585 11 -49
22 -97 23 -105 4 -21 24 -17 156 28 147 50 310 84 469 97 35 3 66 7 69 9 5 6
4 587 -2 593 -6 7 -689 9 -746 3z"/>
<path d="M9633 11642 l-73 -3 0 -299 0 -300 23 -1 c60 -3 125 -10 210 -25 50
-8 101 -17 112 -19 45 -7 153 -38 243 -70 52 -19 98 -32 102 -30 6 4 14 34 35
135 3 11 18 86 21 105 12 63 34 234 39 306 3 46 8 110 10 142 4 53 3 57 -18
57 -153 3 -649 4 -704 2z"/>
<path d="M10567 11443 c-2 -5 -4 -26 -6 -48 -4 -64 -41 -314 -56 -383 -8 -34
-17 -74 -20 -90 -2 -15 -11 -49 -20 -77 l-15 -50 27 -22 c16 -13 32 -23 36
-23 13 0 154 -98 238 -166 44 -35 83 -64 87 -63 12 1 96 109 162 209 62 96
163 291 175 343 5 18 3 27 -5 27 -7 0 -72 29 -144 65 -139 68 -297 164 -396
240 -32 25 -60 42 -63 38z"/>
<path d="M9285 10820 c-22 -4 -67 -10 -100 -14 -100 -10 -308 -65 -423 -111
-49 -20 -50 -12 10 -155 127 -305 323 -537 516 -610 l52 -20 1 23 c5 141 -1
880 -7 886 -5 4 -27 4 -49 1z"/>
<path d="M9560 10366 l0 -457 23 6 c12 4 57 26 101 49 96 50 208 159 294 284
60 87 152 268 190 373 l21 57 -99 35 c-89 33 -209 65 -300 81 -19 3 -46 8 -59
11 -13 2 -57 7 -98 11 l-73 7 0 -457z"/>
<path d="M8430 10518 c-84 -57 -200 -148 -200 -157 0 -8 126 -106 197 -155 94
-64 403 -218 403 -201 0 3 -19 31 -43 62 -89 119 -169 263 -233 418 -18 44
-37 81 -41 82 -4 2 -42 -20 -83 -49z"/>
<path d="M10364 10533 c-8 -21 -25 -60 -36 -88 -42 -107 -145 -283 -225 -387
-24 -32 -42 -58 -39 -58 3 0 40 14 83 31 153 60 331 165 471 277 l62 50 -52
45 c-58 49 -227 167 -240 167 -4 0 -15 -17 -24 -37z"/>
<path d="M5680 10514 c-14 -3 -51 -14 -83 -25 -137 -46 -220 -107 -264 -193
-55 -106 -27 -265 62 -364 88 -98 214 -129 366 -91 220 56 351 179 350 331 -1
202 -127 336 -324 343 -45 2 -93 1 -107 -1z m163 -78 c138 -22 226 -170 187
-312 -44 -155 -354 -273 -512 -195 -77 38 -110 79 -132 162 -26 104 5 190 92
254 53 39 163 82 237 93 52 8 66 8 128 -2z"/>
<path d="M13966 10387 c-131 -222 -125 -375 16 -448 89 -46 162 -14 264 116
118 151 171 182 253 149 76 -30 101 -105 74 -219 -17 -72 -47 -127 -102 -181
l-41 -40 20 -22 c17 -18 25 -20 41 -12 45 25 138 170 157 249 4 14 7 61 7 103
0 69 -3 81 -30 119 -51 73 -152 110 -228 84 -49 -17 -87 -51 -165 -148 -36
-45 -73 -88 -82 -95 -59 -49 -94 -56 -148 -28 -78 40 -75 160 8 314 17 31 30
59 30 63 0 4 -11 14 -25 23 -24 16 -25 15 -49 -27z"/>
<path d="M6200 9819 c-30 -17 -89 -49 -130 -71 -322 -173 -427 -230 -440 -238
-8 -6 -25 -14 -37 -20 -31 -13 -30 -18 12 -78 1 -1 62 30 134 69 74 40 136 68
141 63 5 -5 22 -33 38 -63 38 -69 105 -137 150 -152 71 -23 194 8 265 67 90
75 94 155 13 312 -52 103 -71 135 -81 138 -6 2 -35 -11 -65 -27z m93 -147 c25
-52 37 -92 37 -122 0 -38 -5 -48 -45 -86 -46 -44 -128 -78 -170 -69 -11 2 -25
4 -32 4 -34 2 -143 139 -143 179 0 6 44 34 98 64 53 29 120 65 147 80 28 15
55 27 61 28 6 0 27 -35 47 -78z"/>
<path d="M13750 9788 c-22 -11 -55 -37 -73 -58 -32 -38 -151 -230 -145 -235 5
-3 296 -173 348 -203 25 -14 108 -63 185 -109 76 -46 142 -83 146 -83 8 0 39
46 39 57 0 4 -57 41 -127 82 -71 41 -129 75 -131 76 -1 1 12 29 31 61 89 158
86 239 -9 332 -90 87 -188 117 -264 80z m145 -86 c85 -43 127 -104 120 -175
-3 -36 -72 -179 -84 -174 -3 2 -74 43 -158 92 l-151 89 35 55 c85 134 142 161
238 113z"/>
<path d="M6518 9344 c-16 -16 -15 -20 20 -68 20 -28 39 -53 42 -56 12 -10 52
-71 49 -74 -2 -1 -22 -16 -44 -32 -22 -16 -49 -37 -60 -46 -11 -9 -119 -92
-240 -183 -121 -92 -222 -171 -224 -176 -5 -15 31 -50 45 -45 12 4 153 111
458 343 73 56 112 80 120 74 6 -5 36 -43 66 -85 30 -41 57 -75 60 -75 3 -1 16
8 29 18 30 23 43 -1 -141 241 -74 96 -141 176 -149 178 -8 1 -22 -5 -31 -14z"/>
<path d="M13416 9314 c-10 -14 -14 -29 -10 -33 5 -4 89 -74 186 -155 98 -81
196 -168 217 -192 94 -107 86 -237 -21 -317 -69 -52 -148 -52 -235 -1 -33 19
-270 209 -293 234 -3 3 -34 29 -69 58 l-64 53 -28 -27 c-16 -15 -28 -28 -26
-29 1 -2 90 -75 197 -165 238 -197 289 -230 379 -237 47 -3 76 0 102 11 56 24
132 99 164 162 58 115 30 227 -87 341 -70 68 -375 323 -386 323 -4 0 -15 -12
-26 -26z"/>
<path d="M6871 8586 l-74 -292 -93 -98 -92 -99 26 -23 27 -24 95 99 95 99 275
92 c151 51 277 94 279 96 3 3 -49 54 -54 54 -2 0 -110 -38 -241 -85 -131 -46
-239 -83 -241 -81 -4 4 112 437 127 472 7 17 2 28 -23 52 l-32 31 -74 -293z"/>
<path d="M12835 8645 c-31 -13 -66 -32 -78 -41 -64 -53 -91 -84 -115 -129 -23
-43 -26 -63 -27 -141 0 -84 2 -95 37 -165 40 -81 134 -191 202 -238 99 -68
201 -76 303 -24 204 102 256 324 123 523 -51 76 -150 169 -216 201 -82 40
-153 45 -229 14z m198 -85 c91 -45 196 -170 231 -274 57 -167 -61 -338 -229
-332 -81 2 -127 26 -211 111 -94 95 -137 181 -137 275 0 75 19 124 67 171 81
80 182 98 279 49z"/>
<path d="M7513 8302 c0 -37 -2 -133 -3 -213 -1 -80 -5 -150 -8 -155 -4 -6 -32
-22 -62 -36 -30 -14 -127 -61 -215 -103 l-160 -77 29 -23 c34 -27 14 -34 244
83 89 45 162 79 163 74 2 -15 1 -62 -6 -238 l-7 -181 33 -21 c19 -11 35 -19
38 -16 5 4 9 148 11 359 l1 120 47 22 c195 90 352 167 352 172 0 4 -13 15 -30
24 l-30 18 -160 -81 c-88 -44 -163 -80 -168 -80 -5 0 -7 19 -6 43 1 23 5 107
8 187 l6 145 -38 22 -38 21 -1 -66z"/>
<path d="M12210 8173 c-55 -19 -240 -123 -240 -135 0 -5 6 -19 14 -31 8 -12
25 -41 38 -63 132 -236 343 -584 352 -584 6 0 21 8 34 18 l23 18 -44 75 c-24
40 -55 95 -69 120 -14 25 -32 56 -39 69 -11 17 -11 24 -2 27 7 2 39 22 73 44
33 21 63 39 66 39 3 0 72 -45 153 -100 81 -55 154 -100 162 -100 19 1 66 40
54 46 -13 6 -296 201 -306 211 -5 5 -2 27 6 51 26 73 -1 173 -66 247 -57 64
-121 79 -209 48z m130 -82 c38 -27 79 -109 80 -157 0 -56 -31 -99 -109 -151
-34 -24 -66 -43 -71 -43 -7 0 -46 56 -58 83 -2 5 -28 50 -58 100 -30 50 -54
96 -54 102 0 10 118 74 160 88 27 8 84 -3 110 -22z"/>
<path d="M8106 7938 c-177 -385 -280 -609 -293 -636 -9 -18 -14 -34 -12 -35 2
-2 89 -42 194 -90 l189 -88 18 23 c24 31 23 33 -14 51 -242 114 -288 136 -288
141 0 11 119 256 124 256 4 0 58 -24 121 -54 152 -72 149 -72 164 -40 6 15 8
30 4 34 -4 5 -64 34 -133 65 -69 32 -126 58 -128 60 -5 4 115 259 125 262 5 2
74 -26 153 -63 113 -52 145 -63 152 -52 24 37 27 46 15 51 -6 3 -90 42 -186
86 -96 45 -176 81 -178 81 -1 0 -13 -24 -27 -52z"/>
<path d="M11649 7891 c-236 -75 -306 -319 -174 -597 78 -163 199 -228 351
-188 88 23 254 119 254 148 0 6 -23 73 -51 149 -47 126 -54 137 -73 131 -11
-3 -25 -10 -29 -14 -4 -4 12 -62 36 -129 52 -142 55 -131 -59 -188 -197 -97
-330 -16 -403 245 -61 223 51 394 260 396 65 1 68 2 71 28 3 17 -1 29 -10 33
-28 11 -119 3 -173 -14z"/>
<path d="M8636 7719 c-8 -30 -31 -110 -51 -179 -20 -69 -43 -150 -51 -180 -8
-30 -33 -119 -56 -198 -24 -85 -37 -147 -32 -152 5 -5 20 -11 34 -12 22 -3 26
4 57 112 18 63 35 124 37 135 4 17 100 370 110 400 3 10 19 -40 104 -310 22
-71 65 -206 94 -300 l54 -170 40 -11 39 -11 33 116 c18 64 66 235 107 380 42
146 72 268 68 272 -5 3 -20 9 -34 13 -26 6 -27 5 -58 -112 -18 -64 -37 -130
-42 -147 -5 -16 -25 -88 -45 -160 -55 -200 -62 -227 -66 -231 -4 -3 -62 180
-138 431 -42 140 -108 346 -111 350 -2 2 -21 6 -41 10 l-37 7 -15 -53z"/>
<path d="M10706 7602 c-3 -4 -3 -24 -1 -43 2 -19 6 -61 10 -94 3 -33 8 -82 11
-110 3 -27 7 -68 9 -90 2 -22 7 -67 10 -100 12 -116 15 -150 21 -192 4 -24 2
-43 -2 -43 -5 1 -121 143 -258 316 l-249 315 -41 -3 c-37 -3 -41 -6 -40 -28 1
-28 13 -165 19 -220 2 -19 7 -69 10 -110 3 -41 7 -91 10 -110 5 -41 12 -108
20 -207 4 -40 8 -81 10 -90 2 -10 4 -21 4 -24 1 -3 17 -5 36 -5 35 1 35 1 30
41 -5 41 -9 84 -20 190 -3 33 -8 78 -10 100 -2 22 -7 67 -10 100 -3 33 -8 74
-10 90 -12 89 -16 169 -7 160 5 -5 74 -91 152 -190 363 -457 348 -440 383
-441 49 -1 57 5 52 39 -5 37 -12 114 -20 212 -4 39 -8 80 -10 93 -2 12 -7 62
-10 110 -3 48 -8 98 -10 112 -3 14 -8 61 -11 105 -4 44 -8 89 -9 100 -1 15
-10 21 -32 23 -17 2 -34 -1 -37 -6z"/>
<path d="M9582 7558 c-128 -39 -217 -164 -242 -338 -39 -287 88 -454 339 -446
60 1 87 8 127 29 93 48 169 157 191 275 9 49 9 218 -1 262 -11 52 -56 129 -96
161 -79 66 -213 90 -318 57z m212 -77 c48 -22 76 -50 108 -111 20 -39 23 -59
23 -155 0 -66 -6 -130 -14 -160 -49 -170 -189 -252 -343 -200 -101 35 -151
120 -154 264 -5 243 113 400 290 384 28 -2 68 -12 90 -22z"/>
<path d="M533 5859 c-231 -38 -428 -231 -493 -484 -27 -106 -36 -190 -34 -315
3 -128 7 -165 28 -254 43 -182 142 -317 285 -391 109 -55 317 -80 448 -52 190
41 362 191 441 386 65 158 77 468 27 661 -76 295 -259 443 -560 454 -49 2
-113 -1 -142 -5z m240 -138 c226 -53 350 -266 347 -596 -1 -138 -12 -212 -45
-307 -74 -216 -233 -337 -442 -336 -97 0 -149 10 -218 42 -126 57 -212 185
-251 371 -3 17 -7 93 -9 170 -6 239 46 412 157 527 78 80 155 123 253 141 36
6 159 -1 208 -12z"/>
<path d="M9530 5863 c-96 -11 -204 -50 -269 -95 -127 -89 -232 -249 -267 -403
-39 -169 -38 -398 0 -575 11 -52 55 -150 91 -204 105 -158 286 -239 520 -232
55 2 111 6 124 9 182 47 317 153 408 322 33 63 72 191 80 269 12 112 6 294
-12 392 -30 165 -80 271 -171 362 -101 100 -234 152 -404 156 -41 1 -86 1
-100 -1z m221 -147 c120 -34 219 -128 272 -257 91 -220 66 -602 -52 -772 -92
-133 -214 -202 -366 -206 -255 -6 -422 131 -476 393 -27 133 -24 332 7 454 53
212 176 350 352 397 62 16 193 12 263 -9z"/>
<path d="M13217 5864 c-1 -1 -31 -4 -67 -8 -119 -10 -192 -36 -289 -100 -133
-89 -236 -243 -282 -426 -31 -124 -36 -401 -10 -520 42 -188 109 -294 239
-378 92 -59 201 -83 357 -78 138 5 170 9 295 36 66 15 140 48 141 64 0 6 1
134 1 285 0 186 -3 275 -10 280 -6 4 -24 6 -39 5 -15 -1 -37 -3 -49 -3 -20 -1
-21 -7 -23 -108 -1 -60 -3 -173 -5 -253 l-3 -145 -69 -18 c-106 -26 -314 -34
-393 -13 -208 54 -307 220 -315 532 -10 364 125 620 371 703 119 40 356 13
445 -50 l27 -20 16 26 c48 79 48 68 -3 102 -80 51 -122 64 -275 82 -31 4 -58
6 -60 5z"/>
<path d="M15535 5855 c-164 -32 -309 -135 -400 -285 -123 -203 -152 -595 -61
-845 67 -184 190 -300 373 -351 80 -22 281 -27 353 -8 260 68 440 295 476 599
33 281 -31 573 -158 719 -122 141 -366 213 -583 171z m266 -135 c140 -37 251
-154 298 -315 29 -98 31 -115 35 -245 9 -247 -53 -440 -177 -557 -113 -107
-251 -144 -423 -112 -116 21 -219 93 -278 193 -36 61 -73 180 -81 256 -21 193
5 400 64 524 37 77 124 175 189 213 97 57 252 75 373 43z"/>
<path d="M1539 5853 c-1 -4 -2 -340 -3 -747 -1 -571 2 -740 11 -743 7 -3 39
-6 73 -6 l60 -2 1 35 c0 19 0 151 0 293 l0 257 102 1 c149 0 204 6 282 30 153
46 240 139 281 300 30 115 21 285 -19 381 -41 99 -151 170 -300 194 -57 10
-487 16 -488 7z m488 -135 c130 -37 182 -111 189 -271 6 -160 -32 -261 -119
-321 -69 -47 -153 -66 -299 -66 l-117 0 1 341 0 341 147 -5 c81 -3 169 -11
198 -19z"/>
<path d="M2580 5852 c-1 -4 -3 -33 -6 -64 l-6 -58 212 -2 212 -3 0 -682 c0
-664 0 -683 19 -684 10 -1 30 -1 44 -1 14 0 36 0 49 1 l25 1 0 663 c0 364 0
672 1 685 l0 22 205 0 205 0 1 23 c0 12 2 41 5 64 l5 42 -486 0 c-267 0 -485
-3 -485 -7z"/>
<path d="M3764 5817 c29 -51 101 -180 146 -262 18 -33 72 -130 120 -215 48
-85 102 -182 120 -215 18 -33 44 -80 58 -105 14 -25 39 -72 56 -105 l31 -60 0
-247 -1 -248 28 -1 c15 -1 35 -1 43 -1 8 0 26 0 40 1 l25 1 0 252 0 251 61
116 c34 64 84 159 112 211 27 52 74 142 105 200 61 117 102 195 185 351 32 58
57 109 57 112 0 3 -33 6 -72 6 l-73 0 -220 -434 c-121 -239 -222 -435 -225
-435 -3 0 -10 10 -15 23 -6 12 -37 72 -69 132 -33 61 -76 142 -96 180 -41 76
-137 260 -224 425 l-55 105 -80 2 -81 2 24 -42z"/>
<path d="M5186 5848 c5 -7 104 -166 221 -352 l214 -339 -237 -394 c-129 -217
-233 -397 -230 -401 6 -5 136 -6 141 0 3 3 276 482 309 541 11 21 26 46 31 55
6 9 19 32 29 51 20 37 28 34 63 -26 10 -18 98 -165 197 -328 128 -212 184
-295 197 -296 11 0 33 -1 49 -1 17 0 46 1 66 1 l36 1 -21 33 c-12 17 -78 122
-147 232 -69 110 -170 270 -224 354 l-97 155 17 30 c9 17 104 175 210 351 106
175 195 325 197 333 4 10 -9 13 -66 11 -39 -1 -75 -7 -80 -13 -5 -6 -82 -139
-171 -296 -89 -157 -166 -289 -170 -293 -4 -5 -90 129 -191 297 l-184 306 -83
0 c-64 0 -81 -3 -76 -12z"/>
<path d="M6517 5852 c-2 -4 -4 -342 -3 -751 l1 -744 403 0 c222 0 405 2 407 4
2 2 5 31 7 64 l3 60 -338 0 -337 0 0 276 0 276 280 0 c154 0 282 2 284 4 7 8
14 106 8 116 -5 6 -110 10 -287 10 l-280 -1 -3 282 -2 282 309 0 c347 0 321
-7 321 80 l0 49 -385 0 c-211 0 -386 -3 -388 -7z"/>
<path d="M7559 5856 c-1 0 -2 -337 -3 -748 -1 -742 -1 -748 19 -749 11 -1 40
-1 65 -1 l45 -1 -3 654 -2 654 34 -52 c18 -28 35 -55 37 -60 2 -4 52 -80 110
-168 95 -144 335 -510 582 -887 49 -76 94 -138 101 -139 18 -1 120 -1 134 0 9
1 12 158 12 751 l0 750 -64 0 c-42 0 -65 -4 -68 -12 -2 -7 -3 -121 -2 -253 3
-303 6 -1005 5 -1024 -1 -8 -29 29 -63 82 -74 114 -488 749 -665 1020 l-123
187 -75 -1 c-41 -1 -76 -2 -76 -3z"/>
<path d="M10479 5848 c-6 -70 -2 -1481 4 -1485 7 -4 63 -6 110 -4 18 1 19 26
14 652 l-5 652 151 -231 c84 -127 173 -264 199 -304 68 -106 470 -719 490
-747 15 -21 24 -24 88 -24 39 0 73 3 76 6 4 4 9 1413 5 1484 -1 9 -21 12 -66
12 -53 -1 -65 -4 -66 -18 -1 -23 2 -710 5 -1018 1 -144 -1 -260 -5 -257 -4 2
-46 66 -95 141 -49 76 -130 201 -181 278 -50 77 -139 212 -196 300 -58 88
-166 253 -241 368 l-135 207 -76 0 c-53 0 -75 -4 -76 -12z"/>
<path d="M13909 5853 c-7 -44 -2 -1486 5 -1490 7 -5 83 -7 123 -4 10 1 13 74
15 313 l3 311 150 3 c83 1 156 4 164 5 18 5 36 -30 266 -518 52 -110 55 -113
87 -114 18 -1 52 -2 75 -3 24 0 43 2 43 7 0 8 -107 238 -221 476 -44 90 -82
174 -85 185 -4 16 2 25 23 38 47 27 98 85 125 141 64 131 70 330 14 454 -42
91 -103 138 -226 173 -65 19 -107 22 -317 26 -134 3 -244 1 -244 -3z m444
-123 c107 -15 194 -80 219 -163 18 -62 16 -212 -5 -272 -31 -91 -99 -150 -205
-177 -20 -5 -99 -11 -174 -13 l-138 -5 0 320 0 321 123 -2 c67 -1 148 -5 180
-9z"/>
<path d="M16565 5852 c-12 -8 -13 -909 -1 -1007 40 -343 219 -502 551 -491
132 4 216 28 295 84 67 46 141 141 170 219 51 135 52 155 55 696 l3 508 -68
-2 -67 -2 -1 -471 c0 -429 -2 -501 -17 -575 -16 -85 -70 -193 -121 -245 -61
-61 -132 -89 -240 -94 -223 -10 -348 87 -402 313 -13 54 -20 376 -22 1013 l0
62 -62 0 c-35 0 -68 -4 -73 -8z"/>
<path d="M17954 5109 l1 -752 55 1 c30 0 63 1 72 1 16 1 17 25 16 287 0 157 1
287 4 289 2 2 56 5 121 6 215 3 333 37 425 123 88 83 130 204 130 379 1 241
-91 354 -323 403 -16 3 -136 8 -266 10 l-236 5 1 -752z m455 617 c100 -24 140
-47 179 -103 57 -81 62 -292 10 -398 -59 -119 -157 -161 -377 -164 l-121 -2 0
83 c-1 130 -1 550 0 577 l0 23 143 -5 c78 -2 153 -7 166 -11z"/>
<path d="M19385 5855 c-5 -1 -39 -11 -75 -21 -121 -33 -209 -106 -259 -214
-22 -47 -26 -69 -26 -150 0 -107 15 -149 77 -207 71 -67 117 -87 439 -187 227
-70 320 -166 306 -315 -13 -148 -117 -236 -312 -265 -153 -23 -309 0 -441 65
-35 18 -66 30 -68 28 -9 -10 -46 -89 -46 -98 0 -20 131 -80 230 -106 78 -20
150 -28 261 -27 280 2 470 125 512 328 36 175 -12 304 -146 394 -70 47 -149
79 -328 129 -244 69 -332 134 -342 252 -11 134 83 232 248 259 108 18 273 13
380 -11 55 -12 72 -11 72 4 1 22 13 89 18 97 5 9 -52 22 -160 39 -55 8 -316
13 -340 6z"/>
<path d="M1780 3861 l0 -130 -35 15 c-111 46 -246 -18 -284 -136 -25 -76 -20
-176 11 -232 33 -60 93 -91 173 -91 76 0 166 11 183 22 11 7 16 232 12 639 0
40 -1 42 -30 42 l-30 0 0 -129z m-18 -166 c17 -6 18 -20 18 -174 l0 -168 -31
-7 c-147 -29 -237 25 -243 145 -7 137 73 223 198 213 21 -2 47 -6 58 -9z"/>
<path d="M6430 3861 l0 -130 -35 15 c-59 24 -134 18 -186 -15 -59 -37 -86 -72
-105 -138 -27 -91 -5 -212 46 -258 28 -25 111 -52 154 -49 61 3 156 15 172 21
12 4 14 59 14 344 l0 339 -30 0 -30 0 0 -129z m-22 -165 c22 -7 22 -11 22
-176 l0 -169 -46 -7 c-66 -10 -142 0 -172 23 -37 28 -54 67 -57 132 -3 94 27
155 95 189 40 19 110 23 158 8z"/>
<path d="M15901 3640 l-1 -350 29 0 c16 0 31 6 33 13 2 6 3 89 2 182 -1 101 2
175 8 182 23 29 142 47 179 28 51 -27 52 -34 53 -226 l0 -180 30 3 31 3 0 175
c1 96 -4 190 -9 208 -26 89 -160 105 -287 35 -4 -2 -7 54 -7 124 0 70 0 134
-1 141 -1 6 -14 12 -30 12 l-29 0 -1 -350z"/>
<path d="M17870 3948 c-1 -58 -1 -517 0 -595 l0 -63 30 0 30 0 0 350 0 350
-30 0 c-29 0 -30 -2 -30 -42z"/>
<path d="M7232 3946 c-15 -33 10 -70 41 -60 39 12 48 42 21 68 -22 23 -49 20
-62 -8z"/>
<path d="M2094 3893 c1 -62 3 -68 21 -65 26 5 24 -1 27 67 3 58 2 60 -23 63
-25 3 -26 2 -25 -65z"/>
<path d="M218 3935 c-85 -21 -161 -99 -194 -197 -19 -57 -25 -192 -12 -253 35
-161 142 -219 350 -191 20 3 52 12 70 19 l34 14 -1 124 0 124 -27 3 -27 3 -3
-112 -3 -113 -30 -8 c-50 -14 -159 -11 -197 5 -39 16 -79 64 -96 113 -16 51
-13 208 7 265 35 103 110 161 210 161 31 0 74 -7 95 -16 35 -14 42 -15 54 -2
18 18 11 30 -32 50 -44 21 -139 26 -198 11z"/>
<path d="M3633 3940 c-81 -18 -132 -72 -141 -145 -10 -93 32 -131 200 -185
126 -41 158 -70 158 -144 0 -101 -173 -155 -308 -96 -44 20 -47 20 -59 4 -20
-27 -17 -31 35 -55 58 -27 182 -36 249 -20 86 22 142 82 147 160 7 101 -49
157 -194 196 -127 35 -173 72 -166 134 9 83 117 120 264 92 32 -6 42 -5 42 5
0 7 3 19 6 27 4 11 -5 17 -33 22 -56 11 -163 13 -200 5z"/>
<path d="M8716 3940 c-1 -3 -1 -149 -1 -325 l1 -320 30 -3 30 -3 -3 282 c-1
160 1 278 6 273 8 -8 154 -230 310 -471 49 -76 56 -83 86 -83 18 0 35 6 37 13
3 10 2 558 -1 623 -1 21 -27 29 -47 13 -7 -6 -10 -98 -8 -285 1 -151 -2 -272
-6 -267 -4 4 -67 100 -140 213 -176 272 -221 340 -229 341 -21 5 -63 4 -65 -1z"/>
<path d="M11736 3934 c-9 -8 -16 -21 -16 -28 0 -7 -18 -62 -41 -122 -23 -60
-42 -113 -44 -119 -1 -5 -5 -17 -8 -25 -4 -8 -33 -89 -66 -180 -58 -162 -59
-165 -38 -171 29 -8 46 15 73 100 l21 66 148 0 147 0 30 -82 c29 -82 30 -83
64 -83 l34 0 -25 68 c-196 525 -220 585 -242 588 -12 2 -29 -3 -37 -12z m154
-421 c0 -2 -56 -3 -125 -3 -69 0 -125 2 -125 3 0 2 27 82 60 178 33 95 60 176
60 179 1 5 130 -351 130 -357z"/>
<path d="M14045 3932 c-15 -39 -8 -42 88 -42 l93 0 -1 -287 c0 -159 1 -294 3
-300 2 -7 16 -13 31 -13 l27 0 0 298 0 297 92 3 93 3 -3 27 -3 27 -207 0
c-166 0 -209 -2 -213 -13z"/>
<path d="M4251 3754 c-29 -8 -57 -17 -62 -20 -5 -3 -9 -154 -9 -340 l0 -334
30 0 c34 0 32 -9 31 138 l0 92 68 0 c91 0 163 36 204 101 33 55 38 74 38 162
1 166 -121 248 -300 201z m177 -64 c42 -26 63 -76 63 -149 1 -124 -62 -198
-176 -206 -74 -5 -73 -7 -71 187 l1 172 25 7 c52 15 124 9 158 -11z"/>
<path d="M875 3741 c-44 -20 -101 -78 -116 -120 -35 -90 -14 -223 43 -278 43
-41 80 -55 154 -55 138 -1 227 91 228 237 0 86 -15 133 -58 177 -56 58 -171
76 -251 39z m179 -60 c81 -51 95 -212 24 -288 -38 -41 -76 -56 -130 -51 -85 9
-137 66 -143 160 -6 90 33 165 99 193 40 17 110 10 150 -14z"/>
<path d="M2525 3742 c-50 -24 -75 -59 -77 -112 -2 -58 34 -92 129 -121 117
-36 153 -87 98 -139 -32 -30 -121 -39 -182 -17 -40 14 -42 13 -47 -7 -9 -33
-8 -34 31 -47 52 -17 160 -15 205 4 46 19 78 69 78 121 0 55 -44 95 -145 130
-95 33 -105 40 -105 75 0 54 39 76 140 76 69 0 75 2 78 21 4 26 -10 30 -98 32
-45 2 -77 -3 -105 -16z"/>
<path d="M4925 3738 c-80 -42 -120 -113 -124 -220 -4 -107 31 -178 106 -213
44 -21 154 -24 221 -6 36 10 43 16 40 34 -2 17 -9 21 -28 20 -14 -2 -53 -6
-87 -9 -121 -13 -184 35 -187 140 l-1 51 165 0 165 0 -1 53 c-2 65 -25 114
-66 143 -45 33 -147 36 -203 7z m167 -53 c18 -7 48 -63 48 -89 0 -11 -10 -16
-32 -17 -38 -1 -195 -1 -220 0 -33 2 7 67 63 103 42 27 81 28 141 3z"/>
<path d="M5565 3738 c-79 -41 -116 -101 -123 -200 -9 -122 27 -200 108 -235
64 -28 260 -13 260 20 -1 32 -16 38 -64 26 -26 -6 -73 -9 -105 -6 -97 8 -132
44 -135 138 l-1 54 165 0 165 0 1 40 c0 63 -24 122 -63 152 -48 37 -148 42
-208 11z m157 -50 c26 -10 58 -60 58 -92 0 -17 1 -17 -163 -18 -53 -1 -100 2
-103 5 -10 10 34 73 63 93 31 20 81 33 103 26 8 -2 27 -8 42 -14z"/>
<path d="M7239 3758 c-1 -2 -2 -108 -3 -236 l-1 -232 32 0 31 0 -1 233 -2 232
-27 3 c-16 2 -28 2 -29 0z"/>
<path d="M7599 3758 c-1 -4 -1 -440 0 -455 1 -8 14 -13 31 -13 l30 0 0 190 0
190 35 14 c67 28 137 25 170 -9 25 -24 25 -26 25 -205 l0 -180 30 0 30 0 0
191 c0 162 -3 195 -17 220 -36 61 -157 75 -238 28 l-35 -21 0 26 c0 22 -4 26
-30 26 -16 0 -30 -1 -31 -2z"/>
<path d="M9635 3753 c-24 -6 -83 -49 -107 -78 -47 -56 -63 -203 -30 -278 22
-50 70 -91 122 -104 43 -12 134 -8 189 7 35 9 42 15 39 33 -2 17 -9 21 -28 20
-14 -2 -52 -6 -86 -9 -69 -7 -129 8 -157 39 -21 25 -39 89 -35 125 l3 27 160
0 c100 -1 163 3 167 10 11 15 -1 104 -17 136 -25 47 -69 71 -138 75 -34 1 -71
0 -82 -3z m146 -76 c42 -32 53 -96 17 -98 -61 -3 -242 1 -246 6 -8 8 47 81 72
94 56 30 116 30 157 -2z"/>
<path d="M10110 3748 c0 -7 33 -112 73 -233 72 -217 74 -220 103 -223 l29 -3
60 180 c33 100 62 181 65 181 3 0 23 -57 43 -127 73 -253 64 -233 97 -233 26
0 30 6 56 73 15 39 55 144 89 232 l61 160 -29 3 c-16 2 -34 -1 -39 -6 -4 -4
-33 -78 -62 -163 -60 -174 -84 -231 -86 -209 -2 23 -6 37 -40 165 -17 66 -37
140 -43 165 -11 40 -15 45 -41 45 -16 0 -32 -7 -37 -15 -4 -8 -32 -93 -60
-188 -29 -94 -55 -170 -58 -166 -3 3 -31 87 -61 187 l-56 182 -32 3 c-21 2
-32 -1 -32 -10z"/>
<path d="M12395 3745 c-22 -8 -50 -26 -62 -40 -25 -29 -43 -87 -38 -125 2 -14
4 -30 4 -37 1 -7 14 -28 31 -46 26 -30 28 -36 15 -47 -20 -16 -19 -60 1 -89
16 -22 15 -24 -19 -55 -78 -69 -78 -163 1 -216 34 -23 45 -25 158 -25 135 0
177 14 209 68 24 40 23 102 -2 135 -25 35 -93 70 -152 77 -90 12 -151 35 -160
58 -16 42 1 52 81 49 61 -3 80 1 118 21 49 26 76 63 84 116 5 36 -16 113 -34
119 -25 9 -6 17 37 17 36 0 47 4 49 17 2 15 -12 17 -139 17 -94 0 -155 -5
-182 -14z m183 -70 c32 -38 27 -105 -12 -144 -23 -22 -36 -26 -90 -28 -57 -2
-67 1 -90 24 -14 14 -26 31 -27 37 -1 6 -2 23 -3 37 -7 70 47 112 138 106 50
-3 63 -8 84 -32z m-72 -379 c117 -22 152 -51 142 -117 -11 -76 -256 -95 -303
-23 -28 43 -16 93 33 142 15 14 31 21 42 17 9 -3 48 -11 86 -19z"/>
<path d="M13061 3738 c-90 -48 -132 -135 -125 -257 9 -152 110 -217 294 -189
64 10 80 21 73 49 -5 17 -11 20 -32 14 -14 -3 -57 -8 -96 -11 -82 -6 -129 12
-157 61 -14 26 -24 85 -19 121 1 7 57 10 167 9 l166 -1 -5 60 c-2 34 -10 72
-16 86 -34 73 -166 103 -250 58z m172 -58 c23 -18 53 -87 43 -97 -2 -2 -63 -5
-135 -6 -144 -2 -149 0 -110 55 48 67 148 91 202 48z"/>
<path d="M14755 3742 c-86 -40 -128 -119 -128 -237 0 -103 23 -152 90 -191 40
-24 56 -27 122 -26 79 2 91 3 129 16 15 5 22 15 22 33 0 23 -3 25 -27 19 -16
-4 -59 -9 -98 -12 -113 -8 -171 37 -180 140 -3 38 0 46 13 47 9 1 85 2 167 3
l150 1 -1 63 c-1 68 -16 98 -67 136 -39 29 -139 33 -192 8z m168 -62 c22 -17
46 -80 39 -99 -2 -3 -152 -4 -239 -2 -29 1 -29 15 -2 53 48 67 148 91 202 48z"/>
<path d="M15395 3741 c-91 -42 -135 -120 -135 -239 1 -111 45 -181 131 -206
48 -14 140 -12 200 4 32 9 38 15 35 33 -3 18 -9 21 -32 19 -16 -2 -65 -4 -109
-5 -63 -2 -86 2 -107 16 -55 38 -76 162 -39 243 32 70 99 107 182 99 55 -6 59
-10 59 -61 0 -41 2 -45 23 -42 20 3 22 8 22 68 l0 65 -35 12 c-54 18 -149 15
-195 -6z"/>
<path d="M16539 3758 c-1 -2 -2 -108 -3 -235 l-2 -233 31 0 30 0 0 187 0 188
29 14 c77 36 164 30 189 -13 8 -14 12 -81 14 -191 0 -93 2 -173 2 -177 1 -5
15 -8 31 -8 l31 0 -1 190 c-1 178 -3 191 -24 222 -40 60 -154 75 -232 29 -35
-21 -43 -18 -39 12 3 13 -4 17 -26 17 -16 0 -30 -1 -30 -2z"/>
<path d="M17294 3741 c-58 -26 -108 -82 -120 -132 -24 -99 -5 -215 42 -262 55
-56 162 -77 244 -48 138 47 191 247 103 383 -47 71 -179 100 -269 59z m175
-57 c62 -37 92 -149 62 -236 -47 -140 -248 -142 -296 -3 -16 47 -12 133 9 172
43 83 146 114 225 67z"/>
<path d="M18325 3742 c-111 -52 -160 -180 -121 -313 36 -127 183 -182 313
-117 124 62 159 282 62 387 -54 58 -177 79 -254 43z m173 -57 c92 -55 102
-229 17 -304 -78 -68 -195 -47 -242 42 -20 38 -25 127 -11 171 14 42 66 95
103 105 44 12 99 6 133 -14z"/>
<path d="M18967 3736 c-49 -25 -76 -59 -83 -108 -9 -56 3 -104 35 -134 25 -23
27 -29 15 -41 -23 -23 -21 -68 3 -95 14 -16 13 -20 -16 -44 -40 -34 -62 -75
-64 -123 -3 -89 69 -131 221 -131 149 1 211 37 219 127 5 56 -19 103 -64 126
-23 12 -208 57 -235 57 -4 0 -15 11 -24 24 -28 44 -9 57 88 59 72 2 90 6 121
27 53 36 71 75 65 143 -3 33 -12 64 -21 75 -25 27 -22 30 28 27 28 -1 46 3 49
11 3 8 1 16 -3 18 -5 3 -72 5 -151 4 -123 -1 -147 -4 -183 -22z m167 -36 c15
-5 34 -25 43 -44 23 -49 5 -109 -40 -137 -42 -27 -138 -23 -168 7 -24 25 -34
80 -20 116 21 56 115 85 185 58z m-89 -395 c16 -3 45 -8 65 -11 19 -2 54 -14
77 -25 35 -17 44 -27 49 -55 12 -63 -51 -104 -160 -104 -59 0 -120 17 -140 39
-17 20 -22 58 -12 91 11 35 57 81 75 76 9 -2 29 -7 46 -11z"/>
<path d="M19550 3749 c0 -24 153 -444 165 -454 11 -9 3 -34 -35 -123 l-48
-112 28 0 c30 0 29 -2 90 140 18 41 43 98 55 125 66 144 185 418 185 424 0 4
-13 8 -29 9 -28 2 -30 -1 -119 -210 l-90 -211 -17 49 c-10 27 -41 121 -69 209
l-52 160 -32 3 c-20 2 -32 -1 -32 -9z"/>
</g>
</svg>
